<?xml version="1.0" standalone="no"?>
<!DOCTYPE svg PUBLIC "-//W3C//DTD SVG 20010904//EN"
 "http://www.w3.org/TR/2001/REC-SVG-20010904/DTD/svg10.dtd">
<svg version="1.0" xmlns="http://www.w3.org/2000/svg"
 width="1836.000000pt" height="1836.000000pt" viewBox="0 0 1836.000000 1836.000000"
 preserveAspectRatio="xMidYMid meet">
<metadata>
Created by potrace 1.14, written by Peter Selinger 2001-2017
</metadata>
<g transform="translate(0.000000,1836.000000) scale(0.100000,-0.100000)"
fill="#000000" stroke="none">
<path d="M6174 18197 c-1 -140 -12 -381 -19 -399 -2 -7 -6 -51 -9 -98 -3 -47
-8 -94 -10 -105 -2 -11 -7 -45 -10 -76 -4 -31 -8 -65 -10 -75 -2 -11 -7 -41
-10 -69 -4 -27 -9 -57 -11 -65 -2 -8 -6 -31 -9 -50 -3 -19 -7 -44 -10 -55 -2
-11 -7 -40 -12 -65 -4 -25 -8 -47 -9 -50 -1 -3 -7 -32 -14 -65 -18 -87 -90
-371 -108 -430 -53 -175 -128 -398 -156 -465 -5 -14 -11 -29 -13 -35 -13 -52
-153 -365 -240 -538 -180 -358 -428 -751 -638 -1013 -23 -28 -54 -68 -71 -90
-16 -21 -57 -70 -90 -109 -493 -580 -1056 -1043 -1730 -1422 -74 -42 -414
-211 -475 -237 -25 -11 -67 -29 -95 -41 -27 -12 -81 -35 -120 -49 -38 -15 -84
-34 -100 -41 -39 -18 -475 -163 -506 -169 -13 -2 -50 -12 -83 -21 -32 -9 -64
-18 -70 -19 -6 -1 -20 -5 -31 -9 -11 -3 -31 -8 -45 -11 -14 -3 -74 -16 -135
-29 -60 -14 -127 -28 -147 -31 -21 -3 -57 -10 -80 -15 -24 -5 -63 -12 -88 -16
-25 -3 -56 -8 -70 -10 -14 -2 -43 -6 -65 -10 -23 -3 -51 -7 -64 -10 -12 -2
-52 -7 -89 -11 -37 -3 -78 -8 -92 -9 -212 -21 -408 -33 -592 -35 l-48 0 0
-2975 0 -2975 28 -1 c15 0 1404 -1 3087 -2 l3060 -2 2 -3065 c1 -1686 2 -3073
2 -3082 1 -17 150 -18 2981 -18 l2980 0 1 98 c1 144 12 365 23 457 2 17 7 66
11 110 4 44 8 82 10 85 1 3 6 32 9 65 4 33 9 71 11 85 3 14 7 45 10 69 3 23 7
46 9 50 2 3 7 27 11 51 3 25 12 79 20 120 9 41 17 86 20 99 2 13 9 38 14 55 5
17 13 49 17 71 9 50 8 44 34 140 12 44 24 89 27 100 3 11 25 85 50 165 262
845 721 1641 1333 2314 153 168 465 466 609 582 13 10 43 35 66 54 65 54 72
59 200 155 106 80 281 202 349 245 78 49 325 198 351 211 16 9 80 42 140 74
169 89 254 130 444 211 147 63 137 59 226 92 44 17 100 38 125 47 241 92 729
222 990 264 36 6 76 13 90 16 14 3 43 7 65 10 22 3 67 10 100 15 33 5 85 12
115 15 30 3 71 8 90 10 43 5 151 14 245 21 55 4 240 10 388 14 16 0 17 148 17
2975 l0 2975 -3110 0 -3110 0 0 33 c0 17 0 1406 -1 3085 l0 3052 -2982 0
-2982 0 -1 -123z"/>
</g>
</svg>
